<svg width="50" height="50" viewBox="0 0 50 50" fill="none" xmlns="http://www.w3.org/2000/svg">
<path d="M38.8276 31.0188C32.5412 37.3134 22.3116 37.3181 16.0252 31.0188C12.9824 27.9733 11.3086 23.9171 11.3086 19.5974C11.3086 15.2776 12.9847 11.2215 16.0229 8.17826C16.2331 7.96019 16.3495 7.66812 16.3469 7.36495C16.3442 7.06179 16.2228 6.77179 16.0088 6.55741C15.7948 6.34303 15.5053 6.22143 15.2026 6.21879C14.9 6.21616 14.6084 6.3327 14.3907 6.54332C10.9139 10.0236 9 14.6602 9 19.5974C9 24.5346 10.9162 29.1734 14.3907 32.6538C17.3249 35.5953 21.0141 37.3134 24.8396 37.8523V40.6874H21.3766C21.0705 40.6874 20.7768 40.8092 20.5604 41.026C20.3439 41.2429 20.2223 41.537 20.2223 41.8436C20.2223 42.1503 20.3439 42.4444 20.5604 42.6612C20.7768 42.8781 21.0705 42.9999 21.3766 42.9999H30.6111C30.9173 42.9999 31.2109 42.8781 31.4274 42.6612C31.6438 42.4444 31.7655 42.1503 31.7655 41.8436C31.7655 41.537 31.6438 41.2429 31.4274 41.026C31.2109 40.8092 30.9173 40.6874 30.6111 40.6874H27.1482V38.0419C27.2405 38.0442 27.3329 38.0558 27.4252 38.0558C29.8458 38.06 32.2434 37.5851 34.4803 36.6585C36.7172 35.7318 38.7492 34.3717 40.4598 32.6561C40.6765 32.4393 40.7984 32.1451 40.7986 31.8383C40.7989 31.5314 40.6774 31.2371 40.4609 31.02C40.2445 30.8029 39.9508 30.6808 39.6445 30.6806C39.3382 30.6803 39.0443 30.802 38.8276 31.0188Z" fill="#FFAF4D"/>
<path d="M17.8264 29.2124C15.2807 26.6624 13.8505 23.2038 13.8505 19.5975C13.8505 15.9912 15.2807 12.5326 17.8264 9.98262C20.3722 7.43259 23.825 6 27.4252 6C31.0255 6 34.4783 7.43259 37.0241 9.98262C39.5698 12.5326 41 15.9912 41 19.5975C41 23.2038 39.5698 26.6624 37.0241 29.2124C34.4783 31.7624 31.0255 33.195 27.4252 33.195C23.825 33.195 20.3722 31.7624 17.8264 29.2124Z" fill="url(#paint0_linear_474_20670)"/>
<defs>
<linearGradient id="paint0_linear_474_20670" x1="38" y1="11.5" x2="15.5" y2="28.5" gradientUnits="userSpaceOnUse">
<stop stop-color="#0DD5D5"/>
<stop offset="0.411458" stop-color="#06C185"/>
<stop offset="1" stop-color="#FFBF44"/>
</linearGradient>
</defs>
</svg>
